<?xml version="1.0" encoding="iso-8859-1"?>
<!-- Uploaded to: SVG Repo, www.svgrepo.com, Generator: SVG Repo Mixer Tools -->
<svg height="100px" width="100px" version="1.1" id="Layer_1" xmlns="http://www.w3.org/2000/svg" xmlns:xlink="http://www.w3.org/1999/xlink" 
	 viewBox="0 0 512 512" xml:space="preserve">
<circle style="fill:#FCDE65;" cx="256" cy="256" r="256"/>
<circle style="fill:#C9A413;" cx="256" cy="256" r="227.868"/>
<path style="fill:#FCDE65;" d="M374.13,247.143c0-4.661-3.778-8.44-8.44-8.44s-8.44,3.779-8.44,8.44v95.532h-25.733
	c-4.662,0-8.44,3.779-8.44,8.44s3.778,8.44,8.44,8.44h13.797l-9.757,9.757c-3.296,3.296-3.296,8.64,0,11.935
	c3.297,3.296,8.64,3.296,11.936,0l24.164-24.164c1.527-1.527,2.471-3.637,2.471-5.967V247.143H374.13z"/>
<g>
	<path style="fill:#FBCD18;" d="M312.995,278.792h-16.879v63.883h-25.733c-4.662,0-8.44,3.779-8.44,8.44s3.778,8.44,8.44,8.44
		h13.797l-9.757,9.757c-3.296,3.296-3.296,8.64,0,11.935c3.297,3.296,8.64,3.296,11.936,0l24.164-24.164
		c1.527-1.527,2.471-3.637,2.471-5.967v-72.323H312.995z"/>
	<path style="fill:#FBCD18;" d="M147.087,242.127L90.33,298.883c-3.296,3.296-3.296,8.64,0,11.935
		c1.647,1.647,3.808,2.472,5.967,2.472s4.32-0.824,5.967-2.472l56.757-56.757L147.087,242.127z"/>
</g>
<path style="fill:#FCDE65;" d="M308.995,94.53c-53.961,0-97.705,43.744-97.705,97.705c0,1.686,0.043,3.362,0.127,5.028h-43.899
	c-20.085,0-36.368,16.283-36.368,36.368c0,18.291,13.504,33.423,31.087,35.982l132.556,19.297c4.637,0.675,9.378,1.031,14.202,1.031
	c53.961,0,97.705-43.744,97.705-97.705S362.956,94.53,308.995,94.53z"/>
<circle style="fill:#C9A413;" cx="166.98" cy="233.63" r="8.44"/>
<g>
	<path style="fill:#FCDE65;" d="M256,453.486c-15.172,0-30.321-1.745-45.022-5.186c-4.538-1.062-7.356-5.603-6.294-10.141
		c1.063-4.538,5.603-7.353,10.141-6.294c13.441,3.146,27.296,4.742,41.175,4.742c62.852,0,122.15-33.556,154.75-87.573
		c2.409-3.991,7.598-5.273,11.586-2.865c3.991,2.409,5.274,7.596,2.865,11.587c-17.283,28.638-41.721,52.619-70.671,69.352
		C324.673,444.364,290.602,453.486,256,453.486z"/>
	<path style="fill:#FCDE65;" d="M180.859,437.885c-1.124,0-2.265-0.226-3.361-0.702c-37.388-16.26-69.599-44.467-90.699-79.427
		c-2.408-3.99-1.125-9.178,2.865-11.587c3.992-2.408,9.178-1.125,11.587,2.865c19.305,31.988,48.775,57.796,82.979,72.671
		c4.274,1.859,6.233,6.83,4.374,11.105C187.22,435.988,184.116,437.885,180.859,437.885z"/>
</g>
</svg>