<?xml version="1.0" encoding="iso-8859-1"?>
<!-- Uploaded to: SVG Repo, www.svgrepo.com, Generator: SVG Repo Mixer Tools -->
<svg version="1.1" id="Layer_1" xmlns="http://www.w3.org/2000/svg" xmlns:xlink="http://www.w3.org/1999/xlink" 
	 viewBox="0 0 512 512" xml:space="preserve">
<rect x="201.897" y="262.742" style="fill:#F6E27D;" width="248.084" height="64.718"/>
<rect x="255.828" y="262.742" style="fill:#EFC27B;" width="194.153" height="64.718"/>
<path style="fill:#797781;" d="M455.372,316.673H185.716c-26.805,0-48.538,21.733-48.538,48.538
	c0,26.805,21.733,48.538,48.538,48.538h269.656c26.805,0,48.538-21.733,48.538-48.538
	C503.91,338.406,482.177,316.673,455.372,316.673z"/>
<path style="fill:#58575D;" d="M455.372,316.673H257.348v97.076h198.024c26.805,0,48.538-21.733,48.538-48.538
	C503.91,338.406,482.177,316.673,455.372,316.673z"/>
<rect x="73.983" y="208.811" style="fill:#EFC27B;" width="107.863" height="53.931"/>
<path style="fill:#F8E99B;" d="M63.196,284.314c0-39.655-26.757-73.038-63.196-83.139l11.554-41.597
	c54.658,15.15,94.786,65.255,94.786,124.737S66.214,393.901,11.554,409.051L0,367.453C36.438,357.352,63.196,323.969,63.196,284.314
	z"/>
<circle style="fill:#F6E27D;" cx="133.307" cy="235.777" r="26.966"/>
<path style="fill:#F8E99B;" d="M169.536,176.451v97.076h312.802v-97.076c0-47.657-38.633-86.29-86.29-86.29H331.33v86.29H169.536z"
	/>
<path style="fill:#F6E27D;" d="M482.338,176.451c0-47.657-38.633-86.29-86.29-86.29H331.33v86.29h-73.982v97.076h224.99
	L482.338,176.451L482.338,176.451z"/>
<polygon style="fill:#EDEDED;" points="268.135,176.451 235.776,176.451 235.776,111.734 268.135,100.948 "/>
<polygon style="fill:#DBDBDB;" points="268.135,100.948 257.348,104.543 257.348,176.451 268.135,176.451 "/>
<g>
	<path style="fill:#EDEDED;" d="M239.647,378.694c-7.435,0-13.483-6.048-13.483-13.483c0-7.435,6.048-13.483,13.483-13.483
		s13.483,6.048,13.483,13.483C253.13,372.646,247.081,378.694,239.647,378.694z"/>
	<path style="fill:#EDEDED;" d="M185.716,378.694c-7.435,0-13.483-6.048-13.483-13.483c0-7.435,6.048-13.483,13.483-13.483
		c7.435,0,13.483,6.048,13.483,13.483C199.198,372.646,193.15,378.694,185.716,378.694z"/>
</g>
<g>
	<path style="fill:#DBDBDB;" d="M347.51,378.694c-7.435,0-13.483-6.048-13.483-13.483c0-7.435,6.048-13.483,13.483-13.483
		c7.434,0,13.483,6.048,13.483,13.483C360.992,372.646,354.943,378.694,347.51,378.694z"/>
	<path style="fill:#DBDBDB;" d="M455.372,378.694c-7.435,0-13.483-6.048-13.483-13.483c0-7.435,6.048-13.483,13.483-13.483
		c7.434,0,13.483,6.048,13.483,13.483C468.855,372.646,462.806,378.694,455.372,378.694z"/>
	<path style="fill:#DBDBDB;" d="M401.441,378.694c-7.435,0-13.483-6.048-13.483-13.483c0-7.435,6.048-13.483,13.483-13.483
		c7.434,0,13.483,6.048,13.483,13.483C414.924,372.646,408.875,378.694,401.441,378.694z"/>
	<path style="fill:#DBDBDB;" d="M293.578,378.694c-7.435,0-13.483-6.048-13.483-13.483c0-7.435,6.048-13.483,13.483-13.483
		c7.434,0,13.483,6.048,13.483,13.483C307.061,372.646,301.012,378.694,293.578,378.694z"/>
</g>
<g>
	<path style="fill:#88888F;" d="M455.372,421.839H185.716c-31.225,0-56.628-25.403-56.628-56.628s25.403-56.628,56.628-56.628
		h269.656c31.225,0,56.628,25.403,56.628,56.628S486.597,421.839,455.372,421.839z M185.716,324.762
		c-22.304,0-40.448,18.145-40.448,40.448s18.145,40.448,40.448,40.448h269.656c22.304,0,40.448-18.145,40.448-40.448
		s-18.145-40.448-40.448-40.448H185.716z"/>
	<path style="fill:#88888F;" d="M503.91,421.839H137.177c-4.468,0-8.09-3.622-8.09-8.09c0-4.468,3.622-8.09,8.09-8.09H503.91
		c4.468,0,8.09,3.622,8.09,8.09C512,418.217,508.378,421.839,503.91,421.839z"/>
	<path style="fill:#88888F;" d="M428.406,238.472H223.468c-4.468,0-8.09-3.622-8.09-8.09s3.622-8.09,8.09-8.09h204.939
		c4.468,0,8.09,3.622,8.09,8.09S432.874,238.472,428.406,238.472z"/>
</g>
<path style="fill:#D1E5F5;" d="M396.048,133.306c23.828,0,43.145,19.317,43.145,43.145h-43.145H331.33v-43.145
	C331.33,133.306,396.048,133.306,396.048,133.306z"/>
<rect x="214.204" y="154.88" style="fill:#88888F;" width="75.504" height="43.145"/>
<g>
	<rect x="258.87" y="154.88" style="fill:#797781;" width="30.837" height="43.145"/>
	<path style="fill:#797781;" d="M428.406,222.293H257.348v16.179h171.058c4.468,0,8.09-3.622,8.09-8.09
		S432.874,222.293,428.406,222.293z"/>
	<path style="fill:#797781;" d="M455.372,308.583H257.348v16.179h198.024c22.304,0,40.448,18.145,40.448,40.448
		s-18.145,40.448-40.448,40.448H257.348v16.179h198.024c31.225,0,56.628-25.403,56.628-56.628S486.597,308.583,455.372,308.583z"/>
	<path style="fill:#797781;" d="M503.91,405.659H257.348v16.179H503.91c4.468,0,8.09-3.622,8.09-8.09
		C512,409.281,508.378,405.659,503.91,405.659z"/>
</g>
<path style="fill:#88888F;" d="M292.404,373.301H63.196c-4.468,0-8.09-3.622-8.09-8.09c0-4.468,3.622-8.09,8.09-8.09h229.208
	c4.468,0,8.09,3.622,8.09,8.09C300.493,369.679,296.871,373.301,292.404,373.301z"/>
<path style="fill:#797781;" d="M292.404,357.121h-35.055v16.179h35.055c4.468,0,8.09-3.622,8.09-8.09
	C300.493,360.743,296.871,357.121,292.404,357.121z"/>
<path style="fill:#B4D8F1;" d="M396.048,133.306h-20.051l-43.145,43.145h63.196h43.145
	C439.193,152.623,419.876,133.306,396.048,133.306z"/>
</svg>