<?xml version="1.0" encoding="iso-8859-1"?>
<!-- Uploaded to: SVG Repo, www.svgrepo.com, Generator: SVG Repo Mixer Tools -->
<svg height="100px" width="100px" version="1.1" id="Layer_1" xmlns="http://www.w3.org/2000/svg" xmlns:xlink="http://www.w3.org/1999/xlink" 
	 viewBox="0 0 512 512" xml:space="preserve">
<path style="fill:#8F5DAF;" d="M256.001,512c-64.827,0-125.303-37.573-170.288-105.798c-43.25-65.597-67.517-152.723-68.328-245.329
	c-0.022-2.539,0.493-5.055,1.512-7.392c2.277-5.222,5.064-7.072,12.508-12.013C73.25,113.696,144.45,60.44,151.145,15.797
	C152.504,6.726,160.478,0,169.875,0h160.918c9.395,0,17.37,6.726,18.732,15.798c5.333,35.548,53.349,81.701,131.738,126.623
	c5.626,3.225,9.34,5.354,11.839,11.07c1.023,2.341,1.538,4.86,1.515,7.403c-0.815,92.603-25.083,179.725-68.333,245.316
	C381.297,474.43,320.825,512,256.001,512z"/>
<path style="fill:#5A482E;" d="M404.594,90.379c-32.585,55.778-86.274,114.131-139.831,151.395c-2.465,1.72-5.398,2.629-8.48,2.629
	c-3.072,0-6.009-0.912-8.488-2.634c-57.403-39.937-111.521-99.013-143.758-156.419c-3.883,3.627-7.879,7.195-11.939,10.691
	c33.547,58.424,88.53,118.09,146.749,158.596c5.12,3.559,11.15,5.44,17.436,5.44c6.305,0,12.339-1.884,17.439-5.442
	c54.644-38.02,109.438-97.349,143.24-154.394C412.647,96.938,408.526,93.65,404.594,90.379z"/>
<path style="opacity:0.1;enable-background:new    ;" d="M119.532,406.202c-43.253-65.597-67.519-152.723-68.33-245.329
	c-0.022-2.539,0.494-5.055,1.512-7.392c2.278-5.222,5.064-7.072,12.51-12.013c41.845-27.771,113.045-81.028,119.74-125.671
	C186.323,6.726,194.296,0,203.693,0h-33.818c-9.397,0-17.37,6.726-18.731,15.798c-6.695,44.643-77.895,97.899-119.74,125.671
	c-7.445,4.941-10.232,6.79-12.508,12.013c-1.02,2.336-1.535,4.854-1.512,7.392c0.811,92.606,25.078,179.732,68.329,245.329
	C130.697,474.426,191.174,512,256.001,512c5.673,0,11.31-0.305,16.91-0.876C214.53,505.172,160.578,468.456,119.532,406.202z"/>
<path style="fill:#53E7D3;" d="M256.284,468.671c27.017,0,50.486-19.019,57.078-46.246l-0.022-0.004
	c0.067-0.228,0.126-0.465,0.182-0.714c1.039-4.578,1.545-13.631,1.59-15.264h0.002c0.514-35.961-20.532-73.166-54.924-97.095
	c-1.166-0.812-2.537-1.217-3.906-1.217c-1.37,0-2.741,0.404-3.904,1.217c-34.392,23.929-55.44,61.135-54.926,97.096h0.003
	c0.045,1.653,0.543,10.598,1.582,15.213c0.043,0.255,0.07,0.404,0.1,0.554c0.054,0.258,0.121,0.512,0.204,0.76
	C206.112,449.907,229.452,468.671,256.284,468.671z"/>
<path style="opacity:0.1;enable-background:new    ;" d="M221.251,422.972c-0.084-0.248-0.152-0.502-0.205-0.76
	c-0.029-0.149-0.056-0.299-0.1-0.554c-1.039-4.614-1.537-13.56-1.582-15.213h-0.003c-0.478-33.432,17.688-67.932,47.876-91.848
	c-2.284-1.81-4.63-3.565-7.048-5.249c-1.166-0.812-2.537-1.217-3.906-1.217c-1.37,0-2.741,0.404-3.904,1.217
	c-34.392,23.929-55.44,61.135-54.926,97.096h0.003c0.045,1.653,0.543,10.598,1.582,15.213c0.043,0.255,0.07,0.404,0.1,0.554
	c0.054,0.258,0.121,0.512,0.204,0.76c6.769,26.935,30.108,45.7,56.941,45.7c3.732,0,7.393-0.375,10.954-1.072
	C245.191,463.283,227.078,446.161,221.251,422.972z"/>
<circle style="fill:#37C4B3;" cx="256.283" cy="408.21" r="34.333"/>
<path style="opacity:0.1;enable-background:new    ;" d="M244.462,408.211c0-15.019,9.646-27.775,23.079-32.437
	c-3.528-1.224-7.311-1.898-11.256-1.898c-18.96,0-34.332,15.37-34.332,34.333c0,18.961,15.373,34.333,34.332,34.333
	c3.944,0,7.728-0.674,11.256-1.898C254.108,435.987,244.462,423.23,244.462,408.211z"/>
<g>
	<circle style="fill:#E28883;" cx="195.459" cy="209.899" r="24.873"/>
	<circle style="fill:#E28883;" cx="317.963" cy="209.899" r="24.873"/>
</g>
<g>
	<circle style="fill:#E3DAB3;" cx="373.029" cy="148.407" r="24.873"/>
	<circle style="fill:#E3DAB3;" cx="139.536" cy="148.407" r="24.873"/>
</g>
<path style="opacity:0.1;enable-background:new    ;" d="M192.732,209.901c0-9.757,5.623-18.198,13.801-22.272
	c-3.335-1.661-7.094-2.601-11.073-2.601c-13.735,0-24.873,11.135-24.873,24.873s11.137,24.873,24.873,24.873
	c3.979,0,7.736-0.939,11.073-2.601C198.355,228.099,192.732,219.659,192.732,209.901z"/>
<path style="opacity:0.1;enable-background:new    ;" d="M315.234,209.901c0-9.757,5.623-18.198,13.801-22.272
	c-3.334-1.661-7.093-2.601-11.072-2.601c-13.737,0-24.874,11.135-24.874,24.873s11.137,24.873,24.874,24.873
	c3.979,0,7.736-0.939,11.072-2.601C320.855,228.099,315.234,219.659,315.234,209.901z"/>
<path style="opacity:0.1;enable-background:new    ;" d="M370.305,148.412c0-9.758,5.623-18.199,13.801-22.273
	c-3.335-1.661-7.093-2.601-11.073-2.601c-13.736,0-24.873,11.135-24.873,24.873c0,13.736,11.137,24.872,24.873,24.872
	c3.98,0,7.736-0.939,11.073-2.601C375.927,166.609,370.305,158.169,370.305,148.412z"/>
<path style="opacity:0.1;enable-background:new    ;" d="M136.808,148.412c0-9.758,5.622-18.199,13.801-22.273
	c-3.335-1.661-7.094-2.601-11.073-2.601c-13.736,0-24.873,11.135-24.873,24.873c0,13.736,11.135,24.872,24.873,24.872
	c3.979,0,7.736-0.939,11.073-2.601C142.43,166.609,136.808,158.169,136.808,148.412z"/>
<circle style="fill:#FDF276;" cx="256.283" cy="282.927" r="34.333"/>
<path style="opacity:0.1;enable-background:new    ;" d="M244.462,282.924c0-15.019,9.646-27.775,23.079-32.437
	c-3.528-1.224-7.311-1.898-11.256-1.898c-18.96,0-34.332,15.371-34.332,34.333c0,18.962,15.373,34.333,34.332,34.333
	c3.944,0,7.728-0.674,11.256-1.898C254.108,310.699,244.462,297.942,244.462,282.924z"/>
</svg>