<?xml version="1.0" encoding="iso-8859-1"?>
<!-- Uploaded to: SVG Repo, www.svgrepo.com, Generator: SVG Repo Mixer Tools -->
<svg height="100px" width="100px" version="1.1" id="Layer_1" xmlns="http://www.w3.org/2000/svg" xmlns:xlink="http://www.w3.org/1999/xlink" 
	 viewBox="0 0 511.673 511.673" xml:space="preserve">
<g>
	<path style="fill:#D98F7A;" d="M467.699,149.742l-0.168-0.856c-5.579-27.869-21.23-52.71-43.97-69.764l0,0
		C312.669,119.949,299.975,8.501,299.975,8.501c-28.337-11.335-59.939-11.335-88.276,0l0,0c0,0-12.685,111.448-123.586,70.621
		c-22.74,17.055-38.391,41.896-43.97,69.764l-0.168,0.856c58.65,58.65,58.65,170.867,0,229.517l0.168,0.856
		c5.579,27.869,21.23,52.71,43.97,69.764c0,0,123.039-43.034,167.724,61.793c44.694-104.828,167.724-61.793,167.724-61.793l0,0
		c22.74-17.055,38.391-41.896,43.97-69.764l0.168-0.856C409.048,320.609,409.048,208.393,467.699,149.742"/>
	<g>
		<path style="fill:#F0EDE0;" d="M255.837,457.467c-2.357,0-4.608-0.936-6.268-2.613c-4.846-4.89-10.108-9.41-15.625-13.444
			c-3.937-2.878-4.802-8.395-1.924-12.332c2.869-3.937,8.395-4.802,12.332-1.924c3.964,2.895,7.804,6.012,11.485,9.313
			c3.681-3.302,7.521-6.418,11.485-9.313c3.937-2.878,9.463-2.013,12.332,1.924c2.878,3.937,2.013,9.454-1.924,12.332
			c-5.517,4.034-10.778,8.554-15.625,13.444C260.445,456.531,258.194,457.467,255.837,457.467"/>
		<path style="fill:#F0EDE0;" d="M199.789,423.036c-0.918,0-1.845-0.15-2.763-0.45c-10.699-3.522-22.201-5.906-34.198-7.071
			c-4.846-0.468-8.404-4.785-7.927-9.64c0.468-4.846,4.793-8.439,9.64-7.927c13.286,1.289,26.077,3.937,38.012,7.874
			c4.634,1.527,7.15,6.515,5.623,11.149C206.949,420.679,203.497,423.036,199.789,423.036"/>
		<path style="fill:#F0EDE0;" d="M97.578,419.703c-2.489,0-4.89-1.05-6.585-2.948c-6.735-7.548-12.103-16.119-15.943-25.485
			c-1.192-2.904-0.75-6.223,1.165-8.713c4.193-5.473,8.113-11.326,11.661-17.408c2.463-4.22,7.865-5.632,12.076-3.178
			c4.211,2.454,5.632,7.865,3.178,12.076c-3.019,5.164-6.285,10.187-9.737,14.98c2.119,4.308,4.661,8.369,7.601,12.156
			c5.729-1.086,11.546-1.969,17.337-2.639c4.873-0.583,9.225,2.913,9.781,7.751c0.565,4.846-2.913,9.225-7.751,9.781
			c-7.018,0.821-14.062,1.977-20.948,3.434C98.805,419.641,98.187,419.703,97.578,419.703"/>
		<path style="fill:#F0EDE0;" d="M121.566,249.842c-4.458,0-8.289-3.363-8.775-7.901c-1.324-12.597-3.769-25-7.265-36.855
			c-1.377-4.679,1.298-9.587,5.976-10.964c4.67-1.395,9.587,1.289,10.964,5.967c3.796,12.888,6.453,26.342,7.892,39.998
			c0.503,4.846-3.01,9.198-7.857,9.71C122.184,249.824,121.875,249.842,121.566,249.842 M114.009,335.249
			c-0.83,0-1.668-0.124-2.507-0.371c-4.67-1.368-7.345-6.285-5.967-10.955c3.496-11.873,5.941-24.267,7.256-36.864
			c0.512-4.846,4.776-8.342,9.702-7.857c4.855,0.512,8.369,4.855,7.865,9.702c-1.439,13.656-4.087,27.118-7.883,40.007
			C121.336,332.759,117.823,335.249,114.009,335.249"/>
		<path style="fill:#F0EDE0;" d="M95.514,168.233c-3.037,0-5.994-1.562-7.636-4.378c-3.549-6.082-7.468-11.944-11.661-17.408
			c-1.916-2.489-2.357-5.809-1.165-8.722c3.716-9.057,8.872-17.382,15.307-24.761c2.18-2.481,5.526-3.558,8.766-2.754
			c7.027,1.739,13.939,2.966,20.551,3.663c4.846,0.512,8.369,4.864,7.848,9.71c-0.503,4.838-4.793,8.289-9.702,7.857
			c-5.667-0.6-11.511-1.554-17.443-2.825c-2.675,3.566-5.014,7.353-6.983,11.352c3.452,4.802,6.718,9.825,9.737,14.989
			c2.454,4.211,1.033,9.613-3.178,12.076C98.559,167.845,97.023,168.233,95.514,168.233"/>
		<path style="fill:#F0EDE0;" d="M168.38,126.846c-3.716,0-7.168-2.366-8.395-6.091c-1.51-4.634,1.024-9.613,5.65-11.132
			c12.103-3.955,23.128-10.328,32.794-18.944c3.628-3.257,9.216-2.931,12.456,0.715c3.249,3.637,2.931,9.216-0.706,12.465
			c-11.485,10.249-24.629,17.832-39.053,22.546C170.216,126.705,169.289,126.846,168.38,126.846"/>
		<path style="fill:#F0EDE0;" d="M233.69,65.915c-1.271,0-2.56-0.274-3.778-0.847c-4.405-2.092-6.285-7.353-4.193-11.758
			c2.94-6.206,5.464-12.729,7.495-19.377c0.98-3.187,3.663-5.553,6.947-6.118c10.258-1.766,21.08-1.766,31.356,0
			c3.284,0.565,5.967,2.931,6.939,6.118c2.039,6.647,4.555,13.162,7.495,19.377c2.092,4.405,0.212,9.666-4.202,11.758
			c-4.396,2.092-9.657,0.212-11.75-4.202c-2.507-5.288-4.732-10.77-6.665-16.358c-4.961-0.486-10.028-0.486-14.998,0
			c-1.924,5.597-4.158,11.079-6.665,16.358C240.161,64.052,236.992,65.915,233.69,65.915"/>
		<path style="fill:#F0EDE0;" d="M343.328,126.863c-0.909,0-1.827-0.141-2.737-0.441c-14.424-4.705-27.569-12.288-39.071-22.537
			c-3.637-3.24-3.955-8.819-0.715-12.465c3.249-3.637,8.819-3.955,12.465-0.715c9.666,8.616,20.701,14.989,32.794,18.935
			c4.634,1.51,7.168,6.497,5.658,11.132C350.505,124.497,347.044,126.863,343.328,126.863"/>
		<path style="fill:#F0EDE0;" d="M416.16,168.233c-1.509,0-3.046-0.388-4.44-1.201c-4.211-2.463-5.632-7.865-3.178-12.076
			c3.019-5.164,6.285-10.187,9.737-14.989c-1.969-3.999-4.308-7.795-6.991-11.352c-5.914,1.271-11.758,2.225-17.434,2.825
			c-4.899,0.424-9.198-3.019-9.71-7.857c-0.512-4.846,3.001-9.198,7.857-9.71c6.621-0.697,13.533-1.933,20.542-3.672
			c3.222-0.794,6.594,0.274,8.766,2.763c6.444,7.371,11.599,15.704,15.316,24.761c1.192,2.913,0.75,6.232-1.165,8.722
			c-4.193,5.464-8.113,11.326-11.661,17.408C422.154,166.671,419.196,168.233,416.16,168.233"/>
		<path style="fill:#F0EDE0;" d="M390.108,249.845c-0.309,0-0.618-0.018-0.927-0.044c-4.855-0.512-8.369-4.855-7.865-9.702
			c1.439-13.656,4.087-27.118,7.883-40.007c1.386-4.679,6.321-7.345,10.973-5.967c4.67,1.368,7.345,6.276,5.967,10.955
			c-3.496,11.864-5.941,24.267-7.256,36.855C398.397,246.473,394.566,249.845,390.108,249.845 M397.673,335.243
			c-3.814,0-7.336-2.489-8.466-6.329c-3.796-12.888-6.453-26.341-7.892-39.998c-0.503-4.855,3.01-9.198,7.857-9.71
			c4.882-0.494,9.198,3.01,9.71,7.857c1.324,12.597,3.769,25,7.265,36.855c1.377,4.679-1.298,9.587-5.976,10.964
			C399.341,335.129,398.503,335.243,397.673,335.243"/>
		<path style="fill:#F0EDE0;" d="M414.095,419.703c-0.609,0-1.227-0.062-1.836-0.194c-6.886-1.457-13.93-2.613-20.948-3.434
			c-4.838-0.556-8.316-4.935-7.751-9.781c0.556-4.846,4.97-8.342,9.781-7.751c5.791,0.671,11.608,1.554,17.337,2.639
			c2.94-3.787,5.482-7.848,7.601-12.156c-3.452-4.793-6.718-9.816-9.737-14.98c-2.454-4.211-1.033-9.622,3.178-12.076
			c4.211-2.454,9.613-1.042,12.076,3.178c3.549,6.082,7.468,11.935,11.661,17.408c1.916,2.489,2.357,5.809,1.165,8.713
			c-3.84,9.366-9.207,17.938-15.943,25.485C418.986,418.653,416.584,419.703,414.095,419.703"/>
		<path style="fill:#F0EDE0;" d="M311.91,423.027c-3.708,0-7.159-2.357-8.386-6.065c-1.527-4.635,0.989-9.622,5.623-11.149
			c11.935-3.937,24.726-6.585,38.02-7.874c4.864-0.494,9.172,3.081,9.631,7.927c0.477,4.855-3.072,9.172-7.927,9.64
			c-11.997,1.165-23.499,3.549-34.198,7.071C313.755,422.877,312.828,423.027,311.91,423.027"/>
	</g>
</g>
</svg>