<?xml version="1.0" encoding="iso-8859-1"?>
<!-- Uploaded to: SVG Repo, www.svgrepo.com, Generator: SVG Repo Mixer Tools -->
<svg height="100px" width="100px" version="1.1" id="Layer_1" xmlns="http://www.w3.org/2000/svg" xmlns:xlink="http://www.w3.org/1999/xlink" 
	 viewBox="0 0 512 512" xml:space="preserve">
<path style="fill:#C9A413;" d="M256,0C114.615,0,0,114.615,0,256s114.615,256,256,256s256-114.615,256-256S397.385,0,256,0z
	 M256,326.794c-39.099,0-70.794-31.696-70.794-70.794s31.696-70.794,70.794-70.794s70.794,31.696,70.794,70.794
	S295.099,326.794,256,326.794z"/>
<g>
	<circle style="fill:#FFE991;" cx="256" cy="28.132" r="8.44"/>
	<circle style="fill:#FFE991;" cx="208.626" cy="33.111" r="8.44"/>
	<circle style="fill:#FFE991;" cx="163.322" cy="47.832" r="8.44"/>
	<circle style="fill:#FFE991;" cx="122.059" cy="71.646" r="8.44"/>
	<circle style="fill:#FFE991;" cx="86.657" cy="103.525" r="8.44"/>
	<circle style="fill:#FFE991;" cx="58.661" cy="142.066" r="8.44"/>
	<circle style="fill:#FFE991;" cx="39.284" cy="185.58" r="8.44"/>
	<circle style="fill:#FFE991;" cx="29.381" cy="232.178" r="8.44"/>
	<circle style="fill:#FFE991;" cx="29.381" cy="279.822" r="8.44"/>
	<circle style="fill:#FFE991;" cx="39.284" cy="326.42" r="8.44"/>
	<circle style="fill:#FFE991;" cx="58.661" cy="369.934" r="8.44"/>
	<circle style="fill:#FFE991;" cx="86.657" cy="408.475" r="8.44"/>
	<circle style="fill:#FFE991;" cx="122.059" cy="440.354" r="8.44"/>
	<circle style="fill:#FFE991;" cx="163.322" cy="464.165" r="8.44"/>
	<circle style="fill:#FFE991;" cx="208.626" cy="478.883" r="8.44"/>
	<circle style="fill:#FFE991;" cx="256" cy="483.868" r="8.44"/>
	<circle style="fill:#FFE991;" cx="303.374" cy="478.883" r="8.44"/>
	<circle style="fill:#FFE991;" cx="348.678" cy="464.165" r="8.44"/>
	<circle style="fill:#FFE991;" cx="389.941" cy="440.354" r="8.44"/>
	<circle style="fill:#FFE991;" cx="425.343" cy="408.475" r="8.44"/>
	<circle style="fill:#FFE991;" cx="453.339" cy="369.934" r="8.44"/>
	<circle style="fill:#FFE991;" cx="472.717" cy="326.42" r="8.44"/>
	<circle style="fill:#FFE991;" cx="482.619" cy="279.822" r="8.44"/>
	<circle style="fill:#FFE991;" cx="482.619" cy="232.178" r="8.44"/>
	<circle style="fill:#FFE991;" cx="472.717" cy="185.58" r="8.44"/>
	<circle style="fill:#FFE991;" cx="453.339" cy="142.066" r="8.44"/>
	<circle style="fill:#FFE991;" cx="425.343" cy="103.525" r="8.44"/>
	<circle style="fill:#FFE991;" cx="389.941" cy="71.646" r="8.44"/>
	<circle style="fill:#FFE991;" cx="348.678" cy="47.832" r="8.44"/>
	<circle style="fill:#FFE991;" cx="303.374" cy="33.111" r="8.44"/>
	<path style="fill:#FFE991;" d="M391.764,119.122c-4.661,0-8.44,3.779-8.44,8.44c0,6.685-0.89,13.247-2.565,19.551H131.24
		c-1.673-6.303-2.564-12.865-2.564-19.551c0-4.661-3.779-8.44-8.44-8.44c-4.661,0-8.44,3.779-8.44,8.44
		c0,19.357,5.838,37.95,16.882,53.768c10.788,15.451,25.749,27.196,43.262,33.963c0.97,0.375,32.59-7.872,32.59-7.872
		c12.907-13.669,31.185-22.213,51.468-22.213s38.561,8.544,51.468,22.213c0,0,31.62,8.247,32.59,7.872
		c17.514-6.767,32.473-18.511,43.262-33.963c11.045-15.818,16.882-34.411,16.882-53.768
		C400.204,122.9,396.425,119.122,391.764,119.122z"/>
</g>
<g>
	<path style="fill:#FCDE65;" d="M289.758,420.221c-11.624,0-22.932-1.396-33.758-4.03c-10.826,2.632-22.134,4.03-33.758,4.03
		c-78.764,0-142.841-64.079-142.841-142.841c0-29.213,8.76-57.303,25.334-81.235c2.655-3.832,7.912-4.787,11.743-2.134
		s4.787,7.911,2.134,11.743c-14.609,21.096-22.331,45.863-22.331,71.625c0,69.456,56.507,125.962,125.962,125.962
		c0.068,0,0.133,0,0.2,0c-44.913-24.1-75.526-71.525-75.526-125.962c0-64.727,44.177-121.542,107.431-138.161
		c1.405-0.369,2.884-0.369,4.29,0c62.674,16.467,106.448,73.282,106.448,138.161c0,54.437-30.613,101.862-75.526,125.962
		c0.068,0,0.133,0,0.2,0c69.456,0,125.962-56.507,125.962-125.962c0-25.763-7.722-50.53-22.331-71.625
		c-2.653-3.832-1.699-9.09,2.134-11.743c3.832-2.656,9.089-1.699,11.743,2.134c16.574,23.931,25.334,52.021,25.334,81.235
		C432.6,356.144,368.522,420.221,289.758,420.221z M256.491,156.127c-54.689,15.379-92.695,64.924-92.695,121.253
		c0,57.768,39.086,106.578,92.204,121.369c53.117-14.792,92.204-63.602,92.204-121.369
		C348.204,220.908,310.603,171.367,256.491,156.127z"/>
	<path style="fill:#FCDE65;" d="M256,79.256c-11.774,1.746-20.807,11.893-20.807,24.152s9.034,22.406,20.807,24.152
		c11.774-1.746,20.807-11.893,20.807-24.152S267.774,81.003,256,79.256z"/>
	<path style="fill:#FCDE65;" d="M264.44,149.927V64.056c0-4.661-3.779-8.44-8.44-8.44c-4.661,0-8.44,3.779-8.44,8.44v85.872
		c-53.341,17.843-92.204,68.15-92.204,127.453c0,62.569,42.756,115.15,100.643,130.126
		c57.889-14.975,100.643-67.556,100.643-130.126C356.643,218.077,317.781,167.772,264.44,149.927z M256,315.542
		c-32.884,0-59.542-26.658-59.542-59.542s26.658-59.542,59.542-59.542s59.542,26.658,59.542,59.542S288.884,315.542,256,315.542z"/>
</g>
<path style="fill:#FBCD18;" d="M256,323.981c-37.485,0-67.981-30.496-67.981-67.981s30.496-67.981,67.981-67.981
	s67.981,30.496,67.981,67.981S293.485,323.981,256,323.981z M256,204.898c-28.178,0-51.102,22.924-51.102,51.102
	s22.924,51.102,51.102,51.102s51.102-22.924,51.102-51.102S284.178,204.898,256,204.898z"/>
</svg>