<?xml version="1.0" encoding="iso-8859-1"?>
<!-- Uploaded to: SVG Repo, www.svgrepo.com, Generator: SVG Repo Mixer Tools -->
<svg height="100px" width="100px" version="1.1" id="Layer_1" xmlns="http://www.w3.org/2000/svg" xmlns:xlink="http://www.w3.org/1999/xlink" 
	 viewBox="0 0 500 500" xml:space="preserve">
<g transform="translate(1137.59 -351.93)">
	<path style="fill:#FFFFFF;" d="M-637.59,601.93c0,138.071-111.929,250-250,250c-138.071,0-250-111.929-250-250v0
		c0-138.071,111.929-250,250-250l0,0C-749.519,351.93-637.59,463.859-637.59,601.93L-637.59,601.93L-637.59,601.93z"/>
	<path style="fill:#0AAEB8;" d="M-647.59,601.93c0,132.548-107.452,240-240,240c0,0,0,0,0,0c-132.548,0-240-107.452-240-240
		c0,0,0,0,0,0c0-132.548,107.452-240,240-240h0C-755.042,361.93-647.59,469.382-647.59,601.93L-647.59,601.93z"/>
	<g transform="translate(0 540.36)">
		<g>
			<path style="fill:#AEBBAF;" d="M-999.636-4.343l-90.676,66.193l-32.715,45.279c20.063,103.717,105.585,182.119,210.65,193.115
				h47.717c34.318-3.329,67.515-14.014,97.332-31.326L-901.593,30.713L-999.636-4.343z"/>
			<path style="fill:#AEBBAF;" d="M-760.5,71.342l-61.072,44.582l-116.012,160.568h156.545c53.5-26.59,95.16-72.178,116.834-127.852
				l-30.26-53.688L-760.5,71.342z"/>
		</g>
		<g>
			<path style="fill:#BFCDBF;" d="M-746.248,114.887l-82.951,16.588l-118.732,162.076c19.692,5.222,39.969,7.916,60.342,8.016
				c58.641-0.109,115.214-21.685,159.035-60.652C-728.554,240.915-746.248,114.887-746.248,114.887z"/>
			<path style="fill:#BFCDBF;" d="M-1068.873,23.653l-55.299,78.102c16.66,98.026,92.04,175.628,189.541,195.127l-29.974-244.793
				L-1068.873,23.653z"/>
		</g>
		<g>
			<path style="fill:#FFFFFF;" d="M-990.501-24.544c-40.88,0-76.451,35.65-94.795,67.311l-39.857,59.088l27.102-16.271
				c0.571,3.712,1.904,8.87,5.092,11.721c5.334,4.765,6.889-8.633,11.779-8.041c4.89,0.592,6.446,19.66,13.336,21.447
				c6.052,2.206,9.112-27.091,21.113-29.484c12.001-2.392,13.349,35.755,21.242,36.811c8.352,1.116,4.534-41.998,25.072-51.055
				c29.556-13.033,17.562,80.602,31.039,78.508c13.731-2.134,7.991-62.822,23.326-62.822s13.778,17.912,25.336,17.912
				s6.447-8.938,13.559-8.938s12,17.875,18.668,17.875c2.762,0,4.937-0.484,6.609-1.414l0.006,0.031l18.432-9.846l-26.676-49.67
				C-905.026,18.015-946.786-24.545-990.501-24.544L-990.501-24.544z"/>
			<path style="fill:#FFFFFF;" d="M-750.792,63.364c-30.267,0-55.201,23.13-65.666,42.793l-19.887,30.057l9.266-5.363
				c0.066,2.901,0.535,8.41,3.131,10.73c3.593,3.21,5.234-7.59,8.527-7.191c3.294,0.399,4.34,13.239,8.98,14.443
				c4.641,1.204,6.137-18.245,14.221-19.857c8.083-1.611,5.839,26.75,15.719,26.75s0.075-28.162,15.193-28.162
				s9.276,40.505,20.832,52.404c12.058,12.415,5.738-53.408,16.066-53.408s9.282,15.451,17.066,15.451s4.341-6.02,9.131-6.02
				s8.092,12.318,12.574,12.039c6.063-0.377,11.329-4.66,16.852-7.609l-17.732-33.021C-695.855,87.76-721.257,63.364-750.792,63.364
				L-750.792,63.364z"/>
		</g>
		<g>
			<path style="fill:#F8F8F8;" d="M-961.642-130.246c-3.018,0.082-5.976,1.358-8.6,3.711c-1.852,1.659-3.502,3.823-4.875,6.391
				c-0.159,0.315-0.313,0.635-0.463,0.961c-3.035-0.821-6.185-0.128-8.875,1.955c-2.875,2.232-5.011,5.886-5.965,10.205
				c-3.408,1.051-5.281,2.386-5.283,3.766c-0.003,3.213,9.923,5.818,22.171,5.818c0.002,0,0.003,0,0.005,0
				c3.939-0.003,7.805-0.28,11.199-0.805c0.001,0,0.001,0,0.002,0c3.91,1.84,11.307,2.981,19.338,2.984
				c9.788-0.001,18.416-1.685,21.23-4.145c4.2,1.247,10.235,1.962,16.578,1.965c7.667-0.003,14.783-1.044,18.82-2.754
				c2.374,0.845,5.194,1.298,8.084,1.299c7.831,0,14.178-3.256,14.178-7.271c0,0,0,0,0,0c-0.002-4.015-6.349-7.269-14.178-7.27
				c-1.328,0-2.648,0.096-3.924,0.285c-1.115-1.489-2.437-2.749-3.912-3.729c-4.016-2.652-8.855-3.031-13.141-1.027
				c-0.136,0.071-0.272,0.144-0.406,0.219c-2.106-3.63-4.906-6.646-8.182-8.813c-7.646-5.05-17.04-4.946-24.602,0.273
				c-2.107,1.455-4.014,3.268-5.656,5.381c-0.148,0.205-0.293,0.412-0.436,0.621c-0.001-0.001-0.001-0.001-0.002-0.002
				c-2.691-2.305-5.794-2.983-8.762-1.914c-0.382,0.141-0.76,0.311-1.133,0.508c-1.097-1.79-2.338-3.346-3.691-4.627
				C-954.998-128.956-958.295-130.336-961.642-130.246L-961.642-130.246z"/>
			<path style="fill:#F8F8F8;" d="M-689.339-53.794c-2.757-0.074-5.472,1.063-7.842,3.283c-1.115,1.055-2.136,2.336-3.039,3.811
				c-2.703-1.409-5.639-0.992-8.152,1.158c-1.429-1.955-3.124-3.625-5.02-4.941c-6.228-4.299-13.965-4.386-20.264-0.227
				c-2.698,1.785-5.004,4.27-6.738,7.26c-3.602-1.833-7.737-1.586-11.158,0.666c-1.216,0.807-2.306,1.845-3.225,3.072
				c-1.05-0.156-2.137-0.235-3.23-0.236c-6.45,0-11.679,2.681-11.68,5.989c0,0,0,0.001,0,0.001c0.001,3.308,5.23,5.988,11.68,5.988
				c2.38,0,4.703-0.374,6.658-1.07c3.326,1.408,9.188,2.265,15.502,2.268c5.224-0.002,10.194-0.591,13.654-1.617
				c2.318,2.026,9.426,3.413,17.49,3.414c6.616-0.002,12.711-0.943,15.932-2.459c0.001,0,0.001,0,0.002,0
				c2.795,0.431,5.978,0.66,9.221,0.662c5.532,0,10.766-0.658,14.232-1.789c-2.139-5.274-4.464-10.471-6.973-15.58
				c-1.744-0.836-3.619-1.037-5.438-0.582c-0.044,0.014-0.087,0.028-0.131,0.043c-1.197-2.458-2.691-4.516-4.396-6.057
				C-684.416-52.676-686.852-53.727-689.339-53.794L-689.339-53.794z"/>
		</g>
	</g>
</g>
</svg>