<?xml version="1.0" encoding="iso-8859-1"?>
<!-- Uploaded to: SVG Repo, www.svgrepo.com, Generator: SVG Repo Mixer Tools -->
<svg version="1.1" id="Layer_1" xmlns="http://www.w3.org/2000/svg" xmlns:xlink="http://www.w3.org/1999/xlink" 
	 viewBox="0 0 512 512" xml:space="preserve">
<rect y="50.093" style="fill:#995C0D;" width="512" height="411.814"/>
<g>
	<polygon style="fill:#B27214;" points="37.653,99.647 10.105,72.099 10.105,439.901 37.653,412.353 	"/>
	<polygon style="fill:#B27214;" points="462.436,87.743 489.982,60.198 22.018,60.198 49.563,87.743 	"/>
	<polygon style="fill:#B27214;" points="474.351,99.655 474.351,412.345 501.895,439.889 501.895,72.111 	"/>
	<polygon style="fill:#B27214;" points="49.561,424.258 22.018,451.802 489.982,451.802 462.438,424.258 	"/>
</g>
<rect x="47.758" y="97.85" style="fill:#B8E6FF;" width="416.485" height="316.299"/>
<path style="fill:#9AD14B;" d="M47.763,293.591c22.444-6.029,46.057-9.24,70.41-9.24c63.281,0,121.483,21.701,167.582,58.075
	c28.584,22.553,63.873,35.139,100.282,35.239c0.254,0.001,0.508,0.001,0.761,0.001c26.913,0,52.917-3.93,77.45-11.239v47.727H47.763
	V293.591z"/>
<path style="fill:#2BA5F7;" d="M269.479,414.153c25.572-25.573,96.763-37.779,96.763-37.779l-0.006,0.002
	c-16.202-2.066-31.977-6.602-46.786-13.372l0.006-0.001C174.662,359.579,132.5,414.153,132.5,414.153H269.479z"/>
<circle style="fill:#F7B239;" cx="378.075" cy="174.525" r="45.533"/>
<path style="fill:#666666;" d="M390.812,292.887c-3.41,0-6.175-2.764-6.175-6.175c0-6.624-5.389-12.014-12.014-12.014
	c-3.41,0-6.175-2.764-6.175-6.175s2.765-6.175,6.175-6.175c7.225,0,13.724,3.159,18.189,8.17c4.466-5.011,10.965-8.17,18.189-8.17
	c3.41,0,6.175,2.764,6.175,6.175s-2.765,6.175-6.175,6.175c-6.624,0-12.014,5.389-12.014,12.014
	C396.988,290.121,394.222,292.887,390.812,292.887z"/>
<rect x="111.358" y="249.718" style="fill:#B27214;" width="16.842" height="35.904"/>
<circle style="fill:#9AD14B;" cx="119.778" cy="225.073" r="37.265"/>
</svg>