<?xml version="1.0" encoding="iso-8859-1"?>
<!-- Uploaded to: SVG Repo, www.svgrepo.com, Generator: SVG Repo Mixer Tools -->
<svg height="100px" width="100px" version="1.1" id="Layer_1" xmlns="http://www.w3.org/2000/svg" xmlns:xlink="http://www.w3.org/1999/xlink" 
	 viewBox="0 0 512 512" xml:space="preserve">
<circle style="fill:#FFAD38;" cx="256" cy="256" r="256"/>
<circle style="fill:#FCDE65;" cx="256" cy="256" r="227.868"/>
<g>
	<path style="fill:#CA7B0A;" d="M356.861,165.056c-8.827,3.477-18.408,4.885-27.709,4.071c-19.017-1.664-36.306-12.28-46.396-28.427
		c-1.726-11.135-10.768-19.849-22.072-21.031c0-0.001-43.074-0.001-61.652-0.001l-14.067-32.697c-1.348-3.063-4.378-5.04-7.724-5.04
		h-20.198c-4.661-0.001-8.44,3.778-8.44,8.44c0,4.661,3.778,8.44,8.44,8.44h14.692l29.46,68.589
		c1.877,4.266,6.859,6.203,11.124,4.324c4.266-1.878,6.202-6.859,4.324-11.124l-4.305-10.008l35.003,16.597
		c0.775,0.367,1.574,0.693,2.391,0.98l-5.318,30.996h-17.687c-4.661,0-8.44,3.779-8.44,8.44c0,4.661,3.779,8.44,8.44,8.44h24.802
		c2.31,0,4.431-0.935,5.97-2.473c1.198-1.198,2.043-2.765,2.348-4.538l7.043-41.053c3.942-1.489,7.405-3.944,10.109-7.077
		c13.045,14.227,31.153,23.333,50.684,25.041c11.891,1.041,24.12-0.752,35.366-5.182L356.861,165.056z"/>
	<path style="fill:#CA7B0A;" d="M389.041,263.877v47.593c0,4.661,3.779,8.44,8.44,8.44c4.661,0,8.44-3.779,8.44-8.44v-47.593
		H389.041z"/>
</g>
<path style="fill:#FD9A0C;" d="M408.063,343.877l-26.412-26.411c0,0,0-8.417,0-17.261c3.151-1.494,4.985-2.364,4.985-2.364
	c11.398-5.41,19.283-17.019,19.283-30.474v-90.657c0-0.003,0.001-0.008,0.001-0.012v-40.447c0-4.661-3.779-8.44-8.44-8.44
	s-8.44,3.779-8.44,8.44v17.328c-2.33-0.745-4.812-1.15-7.39-1.15v-16.179c0-4.661-3.779-8.44-8.44-8.44s-8.44,3.779-8.44,8.44
	v22.508c-8.654,5.704-30.239,19.936-30.239,19.936c-3.289,2.176-5.463,5.901-5.463,10.138c0,6.702,5.433,12.134,12.134,12.134
	h16.179v34.06l-92.728,9.703l27.496,97.905c0,0,0.096-0.045,0.276-0.131l-31.346,80.344l15.726,6.135l37.85-97.014
	c15.171-7.193,35.082-16.633,50.116-23.761v12.753c0,2.238,0.889,4.385,2.472,5.967l28.884,28.884c3.296,3.296,8.64,3.296,11.935,0
	C411.359,352.516,411.359,347.172,408.063,343.877z"/>
<path style="fill:#CA7B0A;" d="M218.514,289.511c-25.821,39.173-69.58,64.208-117.057,66.968c-4.653,0.27-8.205,4.263-7.935,8.916
	c0.261,4.486,3.981,7.949,8.417,7.949c0.164,0,0.331-0.004,0.497-0.015c52.769-3.069,101.43-30.93,130.17-74.53L218.514,289.511z"/>
<path style="fill:#FD9A0C;" d="M198.836,206.792l-59.094,34.606c-4.022,2.355-5.373,7.526-3.018,11.548
	c1.571,2.682,4.392,4.176,7.291,4.176c1.449,0,2.917-0.374,4.257-1.158l6.061-3.549l-17.706,138.249h-10.573
	c-4.661,0-8.44,3.779-8.44,8.44s3.779,8.44,8.44,8.44h57.646c4.661,0,8.44-3.779,8.44-8.44s-3.779-8.44-8.44-8.44h-8.411
	L198.836,206.792z"/>
<path style="fill:#CA7B0A;" d="M346.219,417.477h-95.125l28.439-70.767c23.966-4.44,42.121-25.439,42.121-50.691
	c0-28.482-23.088-51.57-51.57-51.57c-28.482,0-51.57,23.088-51.57,51.57c0,25.483,18.489,46.636,42.781,50.81l-30.519,75.943
	c-1.045,2.601-0.73,5.551,0.838,7.872c1.569,2.321,4.189,3.713,6.992,3.713h107.611c4.661,0,8.44-3.779,8.44-8.44
	S350.88,417.477,346.219,417.477z"/>
</svg>