<?xml version="1.0" encoding="iso-8859-1"?>
<!-- Uploaded to: SVG Repo, www.svgrepo.com, Generator: SVG Repo Mixer Tools -->
<svg version="1.1" id="Layer_1" xmlns="http://www.w3.org/2000/svg" xmlns:xlink="http://www.w3.org/1999/xlink" 
	 viewBox="0 0 511.985 511.985" xml:space="preserve">
<path style="fill:#E6E9ED;" d="M93.406,245.486L93.406,245.486c-5.89-0.008-10.671-4.781-10.671-10.664l0.031-74.623
	c0-5.891,4.766-10.656,10.655-10.656l0,0c5.891,0,10.656,4.773,10.656,10.656l-0.016,74.623
	C104.062,240.712,99.281,245.486,93.406,245.486z"/>
<path style="fill:#434A54;" d="M93.515,373.397c-19.78,0-32.076-12.25-32.076-31.969c0-8.031,4.203-17.438,12.827-28.781
	c3.141-4.125,6.266-7.686,8.469-10.107v-14.75c0-5.891,4.781-10.656,10.671-10.656c5.891,0,10.656,4.766,10.656,10.656v23.404
	l-3.125,3.109c-9.671,9.734-18.171,22.406-18.171,27.125c0,7.875,2.812,10.656,10.749,10.656c4.312,0,9.5-9.078,11.078-13.953
	c1.828-5.594,7.828-8.672,13.438-6.844c5.594,1.812,8.672,7.828,6.844,13.422C123.922,347.647,114.953,373.397,93.515,373.397z"/>
<polygon style="fill:#ED5564;" points="125.406,288.118 61.439,288.118 61.439,234.822 82.86,213.502 104.078,213.502 
	125.406,234.822 "/>
<polygon style="fill:#F6BB42;" points="349.267,29.609 306.611,0 263.98,29.609 263.98,501.331 349.267,501.331 "/>
<path style="fill:#E5A535;" d="M349.267,486.253l-27.562-27.562l27.562-27.578v-30.248l-27.562-27.561l27.562-27.562v-30.281
	L321.705,287.9l27.562-27.562v-30.265l-27.562-27.562l27.562-27.569v-25.945c-2.656,0.055-5.281,1.086-7.312,3.117l-35.344,35.319
	l-35.193-35.21c-2.062-2.055-4.75-3.094-7.438-3.117v25.835l27.569,27.569l-27.569,27.562v30.265l27.569,27.562L263.98,315.46
	v30.281l27.569,27.562l-27.569,27.561v30.248l27.569,27.578l-27.569,27.562v15.078h15.07l27.561-27.562l27.594,27.562h15.062
	L349.267,486.253L349.267,486.253z M279.019,245.204l27.592-27.617l27.625,27.617l-27.625,27.632L279.019,245.204z M279.019,330.6
	l27.592-27.623l27.625,27.623l-27.625,27.609L279.019,330.6z M279.019,415.989l27.592-27.625l27.625,27.625l-27.625,27.623
	L279.019,415.989z"/>
<path style="fill:#FFCE54;" d="M466.513,160.199c-28.436,0-453.041,0-453.041,0l26.64-63.959h458.401
	C498.513,96.24,498.513,160.199,466.513,160.199z"/>
<path style="fill:#F6BB42;" d="M208.044,113.223l-16.983-16.984H162.39l-16.984,16.984L128.422,96.24H99.765l-16.983,16.983
	L65.799,96.24H40.892c-0.234,2.984,0.797,6.039,3.078,8.32l23.734,23.742l-23.656,23.655c-2.266,2.258-3.281,5.281-3.094,8.242
	c7.188,0,15.594,0,25,0l16.827-16.82l16.827,16.82c9.188,0,18.891,0,28.984,0l16.812-16.82l16.828,16.82c9.484,0,19.171,0,28.983,0
	l16.827-16.82l16.828,16.82c8.312,0,16.655,0,24.983,0c0.203-2.961-0.828-5.984-3.078-8.242l-23.655-23.655l23.812-23.82
	c2.266-2.258,3.281-5.281,3.094-8.242h-24.999L208.044,113.223z M114.094,144.535L97.86,128.302l16.234-16.242l16.25,16.242
	L114.094,144.535z M176.732,144.535l-16.249-16.233l16.249-16.242l16.234,16.242L176.732,144.535z"/>
<polygon style="fill:#4FC2E9;" points="349.267,160.199 224.872,160.199 263.98,96.24 349.267,96.24 "/>
<rect x="295.952" y="96.243" style="fill:#3BAFDA;" width="21.343" height="63.959"/>
<rect x="391.922" y="74.92" style="fill:#E6E9ED;" width="63.937" height="106.6"/>
<path style="fill:#434A54;" d="M466.513,511.985H146.718c-5.891,0-10.656-4.781-10.656-10.654c0-5.891,4.766-10.656,10.656-10.656
	h319.795c5.906,0,10.688,4.766,10.688,10.656C477.2,507.204,472.419,511.985,466.513,511.985z"/>
</svg>