<?xml version="1.0" encoding="iso-8859-1"?>
<!-- Uploaded to: SVG Repo, www.svgrepo.com, Generator: SVG Repo Mixer Tools -->
<svg version="1.1" id="Layer_1" xmlns="http://www.w3.org/2000/svg" xmlns:xlink="http://www.w3.org/1999/xlink" 
	 viewBox="0 0 512 512" xml:space="preserve">
<polygon style="fill:#D35B38;" points="303.109,503.659 226.425,324.49 81.314,356.866 81.314,387.504 160.013,503.659 "/>
<polygon style="fill:#E86F22;" points="193.219,362.533 193.219,503.67 81.314,503.692 81.314,387.504 "/>
<path style="fill:#FFAD61;" d="M254.401,309.74L66.585,351.636c-4.475,0.998-7.293,5.436-6.296,9.91
	c0.862,3.866,4.292,6.496,8.095,6.496c0.599,0,1.206-0.065,1.815-0.2l187.816-41.896L254.401,309.74z"/>
<rect x="121.07" y="410.671" style="fill:#FFFFFF;" width="38.74" height="38.74"/>
<polygon style="fill:#D35B38;" points="226.425,106.769 226.425,137.207 384.63,203.62 384.63,503.625 439.973,503.625 
	439.973,106.769 "/>
<polygon style="fill:#E86F22;" points="395.699,137.207 395.053,428.279 406.767,446.307 406.767,503.625 226.425,503.659 
	226.425,137.207 "/>
<path style="fill:#FEC45E;" d="M439.973,106.769h-33.206L335.131,0.022C393.208,1.04,439.973,48.448,439.973,106.769z"/>
<path style="fill:#FCDB5A;" d="M406.767,106.769H226.425C226.425,47.806,274.231,0,333.205,0c0.631,0,1.273,0.011,1.904,0.022
	C374.856,1.505,406.767,48.724,406.767,106.769z"/>
<path style="fill:#FFFFFF;" d="M370.513,81.861c-4.586,0-8.302-3.717-8.302-8.302V48.045c0-4.585,3.716-8.302,8.302-8.302
	s8.302,3.717,8.302,8.302v25.514C378.814,78.144,375.097,81.861,370.513,81.861z"/>
<path style="fill:#FFAD61;" d="M444.698,115.067H221.702c-4.586,0-8.302-3.717-8.302-8.302s3.716-8.302,8.302-8.302h222.997
	c4.586,0,8.302,3.717,8.302,8.302S449.284,115.067,444.698,115.067z"/>
<path style="fill:#4D3D36;" d="M398.466,87.667c-4.586,0-8.302,3.717-8.302,8.302v59.085h-40.813V95.969
	c0-4.585-3.716-8.302-8.302-8.302c-4.586,0-8.302,3.717-8.302,8.302v350.338c0,4.585,3.716,8.302,8.302,8.302
	c4.586,0,8.302-3.717,8.302-8.302v-48.288h40.813v48.288c0,4.585,3.716,8.302,8.302,8.302c4.586,0,8.302-3.717,8.302-8.302V95.969
	C406.767,91.384,403.05,87.667,398.466,87.667z M349.352,228.247h40.813v39.987h-40.813V228.247z M349.352,284.837h40.813v39.987
	h-40.813V284.837z M390.164,171.657v39.987h-40.813v-39.987L390.164,171.657L390.164,171.657z M349.352,381.415v-39.987h40.813
	v39.987H349.352z"/>
<path style="fill:#D4ED85;" d="M48.114,512c-4.585,0.001-8.302-3.715-8.303-8.3s3.715-8.302,8.3-8.303l415.774-0.079
	c4.585-0.001,8.302,3.715,8.303,8.3c0.001,4.586-3.715,8.302-8.3,8.303L48.114,512z"/>
</svg>