<?xml version="1.0" encoding="utf-8"?>

<!-- Uploaded to: SVG Repo, www.svgrepo.com, Generator: SVG Repo Mixer Tools -->
<svg version="1.1" id="Uploaded to svgrepo.com" xmlns="http://www.w3.org/2000/svg" xmlns:xlink="http://www.w3.org/1999/xlink" 
	 width="100px" height="100px" viewBox="0 0 32 32" xml:space="preserve">
<style type="text/css">
	.isometric_zeven{fill:#FF7344;}
	.isometric_acht{fill:#F05A28;}
	.isometric_elf{fill:#72C0AB;}
	.st0{fill:#225B49;}
	.st1{fill:#7BD6C4;}
	.st2{fill:#569080;}
	.st3{fill:#FFBB33;}
	.st4{fill:#BE1E2D;}
	.st5{fill:#F29227;}
	.st6{fill:#F8F7C5;}
	.st7{fill:#F5DF89;}
	.st8{fill:#6B9086;}
	.st9{fill:none;}
	.st10{fill:#AD9A74;}
	.st11{fill:#F2D76C;}
	.st12{fill:#F28103;}
	.st13{fill:#FF7344;}
	.st14{fill:#F05A28;}
</style>
<g>
	<path class="isometric_elf" d="M22.987,9.474C22.982,7.63,20.195,7.637,20.2,9.482l0.004,2.93
		c-0.095-0.035-0.186-0.073-0.284-0.104l-0.009-5.896c-0.005-1.844-2.792-1.836-2.787,0.008l0.008,5.457
		c-0.096-0.001-0.191,0.001-0.287,0.002l-0.009-6.214c-0.005-1.849-2.792-1.833-2.787,0.008l0.01,6.635
		c-0.1,0.032-0.193,0.072-0.29,0.107l-0.007-4.942C13.758,5.659,11,5.602,11.005,7.482c0.009,6.491,0.008,4.954,0.008,8.349
		l-1.009-1.003c-1.551-1.542-4.058-1.535-5.6,0.016l-0.028,0.028c0.241,0.24,6.385,6.236,6.754,6.783v0.957
		c-0.007,4.528,11.973,4.505,11.869,0C22.999,22.612,22.987,9.859,22.987,9.474z M22.986,21.455
		c-0.001,0.005-0.002,0.01-0.003,0.015C22.984,21.465,22.985,21.46,22.986,21.455z M22.969,21.543
		c-0.001,0.003-0.001,0.005-0.002,0.008C22.967,21.548,22.968,21.545,22.969,21.543z M18.488,24.291
		C18.491,24.274,18.491,24.274,18.488,24.291L18.488,24.291z M11.146,21.682c0.008,0.03,0.017,0.059,0.027,0.088
		c-0.011-0.032-0.021-0.064-0.03-0.096C11.144,21.677,11.145,21.68,11.146,21.682z M22.393,22.626 M22.445,22.566
		c-0.001,0.001-0.002,0.003-0.003,0.004C22.443,22.569,22.444,22.568,22.445,22.566z"/>
	<path class="isometric_zeven" d="M22.987,9.474C22.982,7.63,20.195,7.637,20.2,9.482l0.004,2.93
		c-0.095-0.035-0.186-0.073-0.284-0.104l-0.009-5.896c-0.005-1.844-2.792-1.836-2.787,0.008l0.008,5.457
		c-0.096-0.001-0.191,0.001-0.287,0.002l-0.009-6.214c-0.005-1.849-2.792-1.833-2.787,0.008l0.01,6.635
		c-0.1,0.032-0.193,0.072-0.29,0.107l-0.007-4.942C13.758,5.659,11,5.602,11.005,7.482c0.009,6.491,0.008,4.954,0.008,8.349
		l-1.009-1.003c-1.551-1.542-4.058-1.535-5.6,0.016l-0.028,0.028c0.246,0.245,6.641,6.487,6.769,6.81
		c0.699,2.516,4.739,3.011,7.337,2.648c0.01-0.068,0.01-0.068,0,0c1.864-0.261,4.265-1.143,4.517-2.962
		C22.999,20.983,22.987,9.859,22.987,9.474z"/>
	<path class="isometric_acht" d="M11.874,16.686c0.006,0,0.012-0.001,0.019-0.001c0.001,0,0.002,0,0.003,0
		c3.979-0.01,7.202,3.538,6.586,7.645c1.864-0.261,4.265-1.143,4.517-2.962c-0.001-0.385-0.013-11.509-0.013-11.894
		C22.982,7.63,20.195,7.637,20.2,9.482l0.004,2.93c-0.095-0.035-0.186-0.073-0.284-0.104l-0.009-5.896
		c-0.005-1.844-2.792-1.836-2.787,0.008l0.008,5.457c-0.096-0.001-0.191,0.001-0.287,0.002l-0.009-6.214
		c-0.005-1.849-2.792-1.833-2.787,0.008l0.01,6.635c-0.1,0.032-0.193,0.072-0.29,0.107l-0.007-4.942
		C13.758,5.659,11,5.602,11.005,7.482c0.009,6.491,0.008,4.954,0.008,8.349L11.874,16.686z"/>
</g>
</svg>